<svg xmlns="http://www.w3.org/2000/svg" xmlns:xlink="http://www.w3.org/1999/xlink" version="1.1" x="0px" y="0px" viewBox="0 0 512 640" style="enable-background:new 0 0 512 512;" xml:space="preserve"><title>Cybercrime-tradewar-hacker-secure-anonymous</title><path d="M492,439.5l-42.2-63.4c4-4.4,6.3-10.2,6.3-16.2V40c0-13.2-10.8-24-24-24H80c-13.2,0-24,10.8-24,24v320  c0,6,2.2,11.8,6.3,16.2L20,439.5c-2.6,3.9-4,8.6-4,13.3V472c0,13.2,10.8,24,24,24h432c13.2,0,24-10.8,24-24v-19.2  C496,448.1,494.6,443.5,492,439.5z M80,384h352c1.2,0,2.4-0.1,3.5-0.3l37.5,56.3H309.7c-5.7,0-11.3,2.3-15.3,6.3  c-1.1,1.1-2.5,1.7-4,1.7h-68.7c-1.5,0-2.9-0.6-4-1.7c-4.1-4.1-9.6-6.4-15.3-6.3H38.9l37.5-56.3C77.6,383.9,78.8,384,80,384z M72,40  c0-4.4,3.6-8,8-8h352c4.4,0,8,3.6,8,8v320c0,4.4-3.6,8-8,8H80c-4.4,0-8-3.6-8-8V40z M472,480H40c-4.4,0-8-3.6-8-8v-16h170.3  c1.5,0,2.9,0.6,4,1.7c4.1,4.1,9.6,6.4,15.3,6.3h68.7c5.7,0,11.3-2.3,15.3-6.3c1.1-1.1,2.5-1.7,4-1.7H480v16  C480,476.4,476.4,480,472,480z"/><path d="M424,48H88v304h336V48z M408,336H104V64h304V336z"/><path d="M185.3,167.3c-9.7,4.4-15.4,14.7-13.9,25.3l0.7,5.1c1.4,9.4,6.1,18.1,13.2,24.3l12.6,44.1c2.2,7.6,8,13.7,15.5,16.2  l34.9,11.6c4.9,1.6,10.3,1.6,15.2,0l34.9-11.6c7.5-2.5,13.3-8.6,15.5-16.2l12.6-44.1c7.2-6.3,11.9-14.9,13.2-24.3l0.7-5.1  c1.5-10.6-4.2-20.9-13.9-25.3l-5.1-30.7c-1.5-9.1-8.2-16.6-17.1-19.1l-41.9-12c-4.3-1.2-8.9-1.2-13.2,0l-41.9,12  c-8.9,2.6-15.5,10-17.1,19.1L185.3,167.3z M324.7,190.3l-0.7,5.1c-1.7,11.8-11.8,20.6-23.8,20.6h-7.4c-9.5,0-18.1-5.6-22-14.3  l-3.7-8.5l47.7-11.7c4.3-1.1,8.6,1.6,9.7,5.9C324.8,188.3,324.9,189.3,324.7,190.3z M260.6,178.3h-9.2l-39.4-9.7l21.5-8.6h44.9  l21.5,8.6L260.6,178.3z M188,195.4l-0.7-5.1c-0.6-4.4,2.4-8.4,6.8-9.1c0.4,0,0.7-0.1,1.1-0.1c0.7,0,1.3,0.1,2,0.2l47.7,11.7  l-3.7,8.5c-3.8,8.7-12.5,14.3-22,14.3h-7.4C199.8,215.9,189.7,207.2,188,195.4z M298.6,261.7c-0.7,2.5-2.7,4.6-5.2,5.4l-34.9,11.6  c-1.6,0.5-3.4,0.5-5.1,0l-34.9-11.6c-2.5-0.8-4.4-2.9-5.2-5.4l-8.7-30.3c2.3,0.4,4.7,0.6,7,0.6h7.4c15.9,0,30.2-9.4,36.6-23.9  l0.3-0.6l0.3,0.6c6.4,14.5,20.8,23.9,36.6,23.9h7.4c2.4,0,4.7-0.2,7-0.6L298.6,261.7z M211.9,132.9l41.9-12c1.4-0.4,3-0.4,4.4,0  l41.9,12c3,0.9,5.2,3.3,5.7,6.4l2.6,15.4L281.5,144h-51.1l-26.8,10.7l2.6-15.4C206.7,136.2,209,133.8,211.9,132.9L211.9,132.9z"/><rect x="120" y="112" width="24" height="16"/><rect x="160" y="112" width="16" height="16"/><rect x="120" y="144" width="24" height="16"/><rect x="160" y="144" width="16" height="16"/><rect x="120" y="176" width="24" height="16"/><rect x="120" y="208" width="24" height="16"/><rect x="120" y="240" width="24" height="16"/><rect x="160" y="240" width="16" height="16"/><rect x="120" y="272" width="24" height="16"/><rect x="160" y="272" width="24" height="16"/><rect x="368" y="112" width="24" height="16"/><rect x="336" y="112" width="16" height="16"/><rect x="368" y="144" width="24" height="16"/><rect x="336" y="144" width="16" height="16"/><rect x="368" y="176" width="24" height="16"/><rect x="368" y="208" width="24" height="16"/><rect x="368" y="240" width="24" height="16"/><rect x="336" y="240" width="16" height="16"/><rect x="368" y="272" width="24" height="16"/><rect x="328" y="272" width="24" height="16"/><rect x="120" y="80" width="24" height="16"/><rect x="160" y="80" width="32" height="16"/><rect x="208" y="80" width="24" height="16"/><rect x="248" y="80" width="16" height="16"/><rect x="280" y="80" width="24" height="16"/><rect x="320" y="80" width="32" height="16"/><rect x="368" y="80" width="24" height="16"/><rect x="120" y="304" width="24" height="16"/><rect x="160" y="304" width="32" height="16"/><rect x="208" y="304" width="32" height="16"/><rect x="272" y="304" width="32" height="16"/><rect x="320" y="304" width="32" height="16"/><rect x="368" y="304" width="24" height="16"/></svg>