<svg xmlns="http://www.w3.org/2000/svg" xmlns:xlink="http://www.w3.org/1999/xlink" version="1.1" x="0px" y="0px" viewBox="0 0 64 80" style="enable-background:new 0 0 64 64;" xml:space="preserve"><g><path d="M47,25c1.654,0,3-1.346,3-3s-1.346-3-3-3s-3,1.346-3,3S45.346,25,47,25z M47,21c0.552,0,1,0.449,1,1s-0.448,1-1,1   s-1-0.449-1-1S46.448,21,47,21z"/><polygon points="49.293,26.293 47,28.586 44.707,26.293 43.293,27.707 45.586,30 43.293,32.293 44.707,33.707 47,31.414    49.293,33.707 50.707,32.293 48.414,30 50.707,27.707  "/><polygon points="58.293,26.293 56,28.586 53.707,26.293 52.293,27.707 54.586,30 52.293,32.293 53.707,33.707 56,31.414    58.293,33.707 59.707,32.293 57.414,30 59.707,27.707  "/><polygon points="40.293,26.293 38,28.586 35.707,26.293 34.293,27.707 36.586,30 34.293,32.293 35.707,33.707 38,31.414    40.293,33.707 41.707,32.293 39.414,30 41.707,27.707  "/><path d="M60,13h-9.747l0.736-8.829C50.997,4.087,51,4.003,51,3.92C51,2.31,49.69,1,48.08,1h-2.16C44.31,1,43,2.31,43,3.92   c0,0.083,0.003,0.167,0.011,0.243L43.746,13h-6.402c-0.364-0.624-0.785-1.217-1.26-1.772l-0.071-0.083C33.755,8.511,30.47,7,27,7   c-1.626,0-3.058,0.792-3.972,1.997L17.67,8.968c-0.024,0-0.048,0-0.072,0c-4.423,0-8.68,2.08-11.397,5.575l-0.085,0.11   c-2.018,2.593-3.124,5.819-3.118,9.083L3,26.003c0,0.937,0.448,1.833,1.2,2.397c1.89,1.418,3.288,3.449,3.937,5.72l0.664,2.324   l-1.409,2.584C7.216,39.012,7.039,39,6.861,39C3.629,39,1,41.629,1,44.861V63h21.056C25.885,63,29,59.885,29,56.056V44   c0-0.807-0.324-1.537-0.844-2.077l0.017-0.035C28.714,40.807,29,39.596,29,38.388v-5.074c0.716-0.973,1.377-1.985,2-3.022V34   c0,1.654,1.346,3,3,3h10v1.586C44,39.917,45.083,41,46.414,41c0.636,0,1.258-0.258,1.707-0.707L51.414,37H60c1.654,0,3-1.346,3-3   V16C63,14.346,61.654,13,60,13z M45.92,3h2.16C48.587,3,49,3.413,49,3.92L48.08,15h-2.16L45,3.92C45,3.413,45.413,3,45.92,3z    M10.061,33.571c-0.769-2.688-2.424-5.093-4.66-6.771C5.146,26.609,5,26.319,5,26.001l-0.003-2.269   c-0.006-2.821,0.952-5.609,2.697-7.854l0.085-0.11c2.342-3.01,6.008-4.801,9.817-4.801c0.021,0,0.042,0,0.063,0l4.443,0.024   C22.035,11.318,22,11.655,22,12c0,2.206,1.794,4,4,4s4-1.794,4-4h-2c0,1.103-0.897,2-2,2s-2-0.897-2-2c0-1.654,1.346-3,3-3   c2.885,0,5.617,1.256,7.495,3.448l0.071,0.083C36.136,14.361,37,16.698,37,19.11v0.647C37,21.545,35.546,23,33.758,23   c-0.867,0-1.681-0.337-2.293-0.95l-2.344-2.343C28.036,18.622,26.534,18,25,18s-3.036,0.622-4.121,1.707l-1.748,1.748   C18.271,20.537,17.059,20,15.729,20C13.673,20,12,21.673,12,23.729c0,0.246,0.024,0.492,0.072,0.732l0.876,4.378l-2.782,5.101   L10.061,33.571z M15.052,29.16l-1.019-5.091C14.011,23.958,14,23.844,14,23.729C14,22.776,14.775,22,15.764,22   c0.998,0,1.896,0.555,2.342,1.447l0.621,1.241l3.566-3.567C23.006,20.409,23.992,20,25,20s1.994,0.409,2.707,1.121l2.343,2.343   c0.475,0.475,1.027,0.841,1.625,1.1c-0.835,1.988-1.834,3.901-3.001,5.71C27.968,28.369,26.148,27,24,27   c-2.468,0-4.512,1.802-4.915,4.158C17.88,31.547,17,32.667,17,34v2.882l-1.783-0.891l-0.895,1.789l1.407,0.704l-1.189,2.972   C13.713,41.169,12.838,41,11.938,41h-0.664l-0.091-0.1c-0.515-0.562-1.134-1.006-1.811-1.327L15.052,29.16z M26,41h-5.558   C19.524,39.945,19,38.574,19,37.172V34c0-0.552,0.448-1,1-1s1,0.448,1,1v1h2v-1c0-1.259-0.782-2.336-1.884-2.78   C21.462,29.945,22.617,29,24,29c1.654,0,3,1.346,3,3v6.388c0,0.899-0.213,1.801-0.615,2.606l-0.021,0.043   C26.243,41.022,26.124,41,26,41z M19,42.383v2.852l-0.116-0.203c-0.63-1.104-1.515-2.008-2.544-2.688l1.076-2.69   C17.753,40.657,18.291,41.588,19,42.383z M17.147,46.023L19,49.265v0.164l-5.748-6.271C14.875,43.525,16.304,44.547,17.147,46.023z    M27,56.056C27,58.782,24.782,61,22.056,61c-1.103,0-2.188-0.375-3.054-1.057L6.618,50.214l-1.236,1.572L17.109,61H3V44.861   C3,42.732,4.732,41,6.861,41c1.079,0,2.117,0.456,2.847,1.252L19,52.389V54h2V43h5c0.552,0,1,0.448,1,1V56.056z M61,34   c0,0.552-0.448,1-1,1h-9.414l-3.879,3.879C46.469,39.117,46,38.924,46,38.586V35H34c-0.552,0-1-0.448-1-1v-7.486   c0.231-0.502,0.456-1.008,0.667-1.523C33.698,24.992,33.727,25,33.758,25C36.648,25,39,22.648,39,19.757V19.11   c0-1.412-0.251-2.801-0.723-4.11h5.636l0.014,0.166C44.013,16.194,44.888,17,45.92,17h2.16c1.032,0,1.907-0.806,1.992-1.834   L50.086,15H60c0.552,0,1,0.449,1,1V34z"/><path d="M61,43H33c-1.103,0-2,0.897-2,2v16c0,1.103,0.897,2,2,2h28c1.103,0,2-0.897,2-2V45C63,43.897,62.103,43,61,43z M61.001,57   H57V45h4L61.001,57z M37,57V45h18v12H37z M35,45v12h-2V45H35z M33,61v-2h28.002l0,2H33z"/></g></svg>