<svg xmlns="http://www.w3.org/2000/svg" xmlns:xlink="http://www.w3.org/1999/xlink" viewBox="0 0 24 30" version="1.1" x="0px" y="0px"><title>murder</title><desc>Created with Sketch.</desc><g stroke="none" stroke-width="1" fill="none" fill-rule="evenodd"><circle fill="#000000" fill-rule="nonzero" cx="5.921" cy="7.355" r="1.409"/><circle fill="#000000" fill-rule="nonzero" cx="19.867" cy="6.385" r="1.409"/><path d="M21.688,8.307 C21.329,8.176 21.316,8.17 21.265,8.148 C21.22,8.128 21.149,8.096 20.835,7.972 L20.68,7.911 L20.542,8.005 C20.201,8.236 19.518,8.233 19.188,8.006 L19.053,7.912 L18.009,8.312 C17.078,8.694 15.983,9.145 15.46,9.354 C15.499,9.311 15.531,9.264 15.554,9.208 C15.6,9.09 15.598,8.961 15.549,8.852 C15.477,8.675 15.306,8.561 15.115,8.561 L14.99,8.574 L13.924,9.027 C13.809,9.075 13.719,9.166 13.672,9.282 C13.623,9.399 13.624,9.529 13.673,9.644 C13.745,9.82 13.917,9.933 14.108,9.933 L14.233,9.921 L14.96,9.612 C14.743,9.804 14.691,10.057 14.729,10.253 C14.808,10.68 15.287,10.922 15.765,10.739 L16.343,10.511 C16.828,10.321 17.445,10.077 17.687,9.985 C17.9,9.902 18.104,9.822 18.274,9.755 C18.28,11.455 18.301,17.281 18.301,17.814 C18.301,18.843 19.556,18.843 19.556,17.814 L19.556,13.744 C19.556,13.457 19.716,13.353 19.869,13.353 C20.019,13.353 20.181,13.457 20.181,13.744 L20.181,17.814 C20.181,18.328 20.497,18.597 20.809,18.597 C21.121,18.597 21.436,18.327 21.436,17.808 C21.421,16.742 21.433,11.257 21.435,9.745 C21.594,9.822 21.746,9.979 21.746,10.3 L21.746,13.117 C21.746,14.148 23.003,14.148 23.003,13.117 L23.003,10.3 C23,9.646 23,8.833 21.688,8.307 Z" fill="#000000" fill-rule="nonzero"/><path d="M12.054,11.032 L13.687,10.216 L11.6,10.216 L12.6,8.216 L10.98,9.43 L11.404,7.733 L8.821,10.747 L8.517,9.905 C9.058,9.678 9.449,9.365 9.867,8.313 L10.786,5.992 C10.891,5.726 10.871,5.455 10.733,5.251 C10.607,5.067 10.4,4.957 10.178,4.957 C9.878,4.957 9.612,5.156 9.486,5.477 L8.392,8.232 L8.348,8.349 C8.28,8.537 8.278,8.534 8.118,8.537 L7.21,8.508 L7.112,8.643 C6.865,8.986 6.239,9.211 5.841,9.109 L5.681,9.066 L5.555,9.175 C5.363,9.341 5.311,9.386 5.297,9.397 L5.298,9.398 C5.234,9.447 5.137,9.528 4.976,9.663 C4.883,9.663 4.716,9.573 4.537,9.475 L2.103,8.162 C1.646,7.915 1.13,8.124 1.021,8.56 C0.938,8.885 1.103,9.213 1.439,9.395 L3.484,10.499 C4.251,10.915 4.96,11.072 5.564,10.959 L6.645,13.926 C6.09,15.412 5.346,17.293 5.097,17.922 L5.063,18.01 C4.957,18.274 4.976,18.543 5.116,18.75 C5.241,18.934 5.449,19.043 5.671,19.043 C5.971,19.043 6.236,18.844 6.363,18.525 L6.703,17.675 C7.752,15.058 8.098,14.189 8.121,14.101 C8.18,13.886 8.416,13.847 8.552,13.923 C8.693,14.007 12.151,15.884 12.742,16.202 C13.201,16.452 13.73,16.249 13.842,15.817 C13.924,15.497 13.754,15.165 13.406,14.971 L13.222,14.871 C12.329,14.389 10.849,13.588 9.588,12.865 L9.415,12.387 L14.347,11.49 L12.054,11.032 Z M10.985,11.461 L9.198,11.786 L9.063,11.412 C9.084,11.398 9.105,11.387 9.122,11.365 L10.145,10.173 L9.938,11 L10.841,10.323 L10.58,10.845 L11.016,10.845 L10.127,11.289 L10.985,11.461 Z" fill="#000000" fill-rule="nonzero"/></g><text x="0" y="39" fill="#000000" font-size="5px" font-weight="bold" font-family="'Helvetica Neue', Helvetica, Arial-Unicode, Arial, Sans-serif">Created by IcoLabs</text><text x="0" y="44" fill="#000000" font-size="5px" font-weight="bold" font-family="'Helvetica Neue', Helvetica, Arial-Unicode, Arial, Sans-serif"></text></svg>