<svg xmlns="http://www.w3.org/2000/svg" xmlns:xlink="http://www.w3.org/1999/xlink" version="1.1" x="0px" y="0px" viewBox="0 0 100 125" enable-background="new 0 0 100 100" xml:space="preserve"><g><path d="M27.044,24.226v-4.58H12.218v4.58H0.438v16.19v31.428h0.077l38.513-0.006l0.006-31.422v-16.19H27.044z M12.212,56.935   H5.998V50.72h6.214V56.935z M12.212,46.63H5.998v-6.214h6.214V46.63z M12.212,36.328H5.998v-6.215h6.214V36.328z M22.843,50.72   v1.798v4.418h-6.215v-4.418V50.72v-0.001h6.215V50.72z M22.843,46.635h-6.215v-6.219h6.215V46.635z M22.843,36.328h-6.215v-6.215   h6.215V36.328z M33.474,56.935h-6.215V50.72h6.215V56.935z M33.474,46.63h-6.215v-6.214h6.215V46.63z M33.474,36.328h-6.215v-6.215   h6.215V36.328z"/><polygon points="36.828,17.998 34.405,17.159 39.152,3.447 41.575,4.286 36.828,17.998  "/><polygon points="46.014,20.859 44.269,18.979 56.379,7.749 58.122,9.627 46.014,20.859  "/><polygon points="48.431,28.912 47.625,26.478 63.038,21.374 63.844,23.807 48.431,28.912  "/></g><g><path d="M94.624,43.219c3.276-0.656,5.409-3.881,4.746-7.195c-0.668-3.32-3.872-5.468-7.151-4.812   c-3.283,0.658-5.405,3.87-4.741,7.191C88.141,41.716,91.341,43.875,94.624,43.219"/><path d="M59.187,38.104c-8.018,2.618-11.283,8.033-9.7,12.88c1.583,4.847,7.237,6.718,15.254,4.098   c8.02-2.623,18.202-11.772,17.352-14.378C81.151,37.824,67.206,35.479,59.187,38.104z"/><path d="M97.841,49.673c-1.474-0.751-3.279-0.17-4.034,1.304l-1.242,2.432l-1.379-7.517c-0.121-0.664-0.928-1.698-0.928-1.698   c-0.847-0.908-1.917-1.367-3.195-1.367c-1.217,0-2.251,0.459-3.104,1.367l-13.24,13.15c-0.548,0.551-4.392,3.853-5.019,7.591   l-2.097,12.41L52.15,75.749c-1.869-0.205-3.815,0.652-4.077,2.455c-0.512,3.504,3.737,4.007,3.737,4.007s12.675,2.031,15.766,2.031   C70,84.1,71.248,82.01,71.507,80.84c0.806-3.642,2.466-10.467,2.466-10.467s5.463,5.462,7.529,8.229l2.737,14.909   c0.071,0.369,0.178,0.718,0.312,1.045H54.896v2.412h32.793V96.95c0.245,0.006,0.497-0.013,0.757-0.062   c2.239-0.425,2.865-2.249,2.586-4.55l-2.133-14.681c-0.085-1.032-0.357-2.762-1.107-3.829c0,0-5.021-6.484-6.794-8.69l6.436-6.485   l0.829,4.522c0.231,1.264,1.242,2.237,2.514,2.424c0.146,0.021,0.291,0.031,0.435,0.031c1.113,0,2.149-0.62,2.668-1.631   l5.266-10.293C99.898,52.233,99.315,50.428,97.841,49.673z"/></g><text x="0" y="115" fill="#000000" font-size="5px" font-weight="bold" font-family="'Helvetica Neue', Helvetica, Arial-Unicode, Arial, Sans-serif"></text><text x="0" y="120" fill="#000000" font-size="5px" font-weight="bold" font-family="'Helvetica Neue', Helvetica, Arial-Unicode, Arial, Sans-serif"></text></svg>